<svg xmlns="http://www.w3.org/2000/svg" viewBox="0 0 512 512" role="img" aria-label="شعار المجلس العلمي">
  <defs>
    <linearGradient id="g" x1="0" y1="0" x2="1" y2="1"><stop offset="0" stop-color="#164E3C"/><stop offset="1" stop-color="#1F6E54"/></linearGradient>
    <linearGradient id="gold" x1="0" y1="0" x2="1" y2="1"><stop offset="0" stop-color="#D8BC62"/><stop offset="1" stop-color="#B08D2E"/></linearGradient>
  </defs>
  <rect width="512" height="512" rx="112" fill="url(#g)"/>
  <path d="M256 86c52 44 86 100 86 162 0 67-39 121-86 178-47-57-86-111-86-178 0-62 34-118 86-162Z" fill="#FAF5EA" opacity=".96"/>
  <path d="M256 122c34 34 54 72 54 118 0 49-24 88-54 128-30-40-54-79-54-128 0-46 20-84 54-118Z" fill="url(#g)"/>
  <path d="M150 337c68-20 144-20 212 0v34c-68-23-144-23-212 0v-34Z" fill="url(#gold)"/>
  <path d="M171 382c55-15 115-15 170 0" fill="none" stroke="#FAF5EA" stroke-width="18" stroke-linecap="round"/>
  <circle cx="256" cy="237" r="28" fill="url(#gold)"/>
  <path d="M256 172l18 32h-36l18-32Z" fill="#FAF5EA"/>
</svg>